<svg version="1.1" id="Layer_1" xmlns="http://www.w3.org/2000/svg" xmlns:xlink="http://www.w3.org/1999/xlink" x="0px" y="0px"
	 width="100%" viewBox="0 0 50 71" enable-background="new 0 0 50 71" xml:space="preserve">
<path fill="#000000" opacity="1.000000" stroke="none" 
	d="
M46.000000,1.000000 
	C47.650646,1.000000 49.301296,1.000000 51.000000,1.000000 
	C51.000000,14.354196 51.000000,27.708439 50.585793,41.791397 
	C48.550262,42.345299 46.929317,42.022858 45.307556,42.018707 
	C30.538450,41.980904 15.769204,41.998558 1.000000,42.000000 
	C1.000000,28.333334 1.000000,14.666668 1.000000,1.000001 
	C2.000000,1.000000 3.000000,1.000000 4.735030,1.298830 
	C4.966704,2.691414 4.463348,3.785169 3.592765,5.120214 
	C3.225536,16.857189 3.225536,28.352873 3.225536,39.848557 
	C3.696262,39.863194 4.166987,39.877831 4.637713,39.892467 
	C4.784163,37.944134 4.930612,35.995804 5.497753,33.982979 
	C6.278751,32.438633 6.915756,30.965424 6.951497,29.477770 
	C7.106824,23.012426 7.086952,16.542875 7.093177,10.076658 
	C7.055607,10.078465 7.122954,10.050998 7.351016,10.021334 
	C7.579077,9.991669 8.017056,9.842641 8.479832,9.913897 
	C20.621731,9.938224 32.300854,9.891297 44.217590,9.919216 
	C44.455200,9.994061 44.947468,10.070975 44.922909,10.050295 
	C44.898350,10.029613 44.871292,10.087846 44.922802,10.547729 
	C44.983082,15.487878 44.842934,19.974970 45.047882,24.446243 
	C45.210999,28.004976 45.795589,31.544394 46.120506,35.473152 
	C46.625832,37.252640 47.203720,38.651363 47.781612,40.050083 
	C48.917515,28.414877 48.925579,17.193876 48.880859,5.973087 
	C48.879429,5.614725 48.336208,5.258523 47.892876,4.587734 
	C47.160126,3.182769 46.580063,2.091385 46.000000,1.000000 
M9.987894,34.024826 
	C9.987894,34.024826 9.922565,34.041843 10.071415,34.537750 
	C10.355337,34.714657 10.639258,34.891560 10.950291,35.628075 
	C10.854571,35.788433 10.758851,35.948795 9.933061,36.055729 
	C8.838762,37.364552 7.744465,38.673374 5.807415,40.990162 
	C18.806778,40.990162 30.380085,41.074543 41.946621,40.833698 
	C42.895794,40.813934 44.676163,38.503616 44.577648,37.389599 
	C44.034317,31.245554 34.674820,22.892872 27.412172,21.902117 
	C26.587631,21.905315 25.763090,21.908514 24.254564,21.999763 
	C21.051659,22.090895 18.496847,23.027563 17.751671,26.951675 
	C17.751671,26.951675 17.419811,27.137989 16.985670,26.538458 
	C12.393686,26.275120 10.658463,29.477089 9.105088,33.521549 
	C9.400276,33.711792 9.695464,33.902035 9.987894,34.024826 
z"/>
<path fill="#000000" opacity="1.000000" stroke="none" 
	d="
M5.000000,72.000000 
	C3.686433,72.000000 2.372866,72.000000 1.000000,72.000000 
	C1.000000,63.645847 1.000000,55.291592 1.412992,46.470291 
	C3.200581,46.038113 4.575179,46.072971 6.147679,46.445602 
	C8.637959,47.521511 10.913124,48.826031 13.225800,48.896317 
	C21.669331,49.152931 30.127501,48.889606 38.575577,49.055428 
	C41.609035,49.114967 44.193138,48.706829 46.475143,46.059616 
	C47.875587,45.695641 48.852322,45.378056 50.346169,45.015709 
	C50.908852,45.313965 50.954422,45.656982 51.000000,46.000000 
	C51.000000,53.833332 50.747894,61.678780 51.123417,69.494072 
	C51.274761,72.643761 49.654381,71.951927 47.280773,71.688454 
	C47.072990,70.273781 47.584435,69.170654 48.431244,67.796303 
	C48.845192,62.714916 49.081905,57.898758 48.899971,53.098469 
	C48.849495,51.766674 47.556717,50.481960 46.833893,49.175648 
	C46.277916,49.379410 45.721939,49.583172 45.165962,49.786938 
	C45.165962,53.185200 45.165962,56.583466 45.034279,60.246960 
	C44.578655,60.729664 44.254707,60.947140 43.471817,61.102966 
	C31.369246,61.081482 19.725613,61.121643 7.813322,61.044937 
	C7.064802,60.603146 6.584939,60.278225 6.233730,59.569138 
	C7.907533,52.048855 7.504998,50.606739 2.667998,49.658424 
	C3.090254,55.950275 3.496446,62.002762 3.957306,68.422905 
	C4.341316,69.860374 4.670658,70.930191 5.000000,72.000000 
z"/>
<path fill="#1B868F" opacity="1.000000" stroke="none" 
	d="
M48.095879,68.067528 
	C47.584435,69.170654 47.072990,70.273781 46.780773,71.688454 
	C46.555553,72.000000 46.111111,72.000000 45.183640,71.807396 
	C44.483173,71.367188 44.229794,71.164505 43.616409,71.006958 
	C42.860264,71.003769 42.428188,71.000366 41.656742,70.770798 
	C37.284702,68.870453 32.079586,71.910660 28.603439,67.086395 
	C27.939802,66.165382 23.338667,66.412857 22.701887,67.445557 
	C20.557789,70.922722 17.534458,69.674210 14.752764,70.012199 
	C12.495297,70.286484 10.251292,70.671562 8.001451,71.255630 
	C8.001585,71.503754 8.000000,72.000000 8.000000,72.000000 
	C7.250000,72.000000 6.500000,72.000000 5.375000,72.000000 
	C4.670658,70.930191 4.341316,69.860374 4.192632,68.111183 
	C4.950551,64.938972 5.527813,62.446136 6.105075,59.953304 
	C6.584939,60.278225 7.064802,60.603146 8.161638,61.249062 
	C16.232849,61.716042 23.687534,61.986595 31.141155,61.959892 
	C35.405251,61.944618 39.667614,61.445751 43.930759,61.164616 
	C44.254707,60.947140 44.578655,60.729664 45.361053,60.408260 
	C46.578293,62.892063 47.337086,65.479797 48.095879,68.067528 
z"/>
<path fill="#FE9F57" opacity="1.000000" stroke="none" 
	d="
M51.000000,45.600006 
	C50.954422,45.656982 50.908852,45.313965 50.060394,44.855846 
	C47.185188,44.510353 45.112865,44.279957 42.572258,44.024338 
	C37.390118,44.013382 32.676273,44.027653 27.513012,44.023113 
	C24.057755,44.019341 21.051910,44.034378 17.638065,44.025997 
	C16.138346,44.018005 15.046631,44.033428 13.496074,44.030319 
	C9.024821,44.007854 5.012411,44.003925 1.000000,44.000000 
	C1.000000,43.555553 1.000000,43.111111 1.000000,42.333332 
	C15.769204,41.998558 30.538450,41.980904 45.307556,42.018707 
	C46.929317,42.022858 48.550262,42.345299 50.585793,42.260056 
	C51.000000,43.066669 51.000000,44.133339 51.000000,45.600006 
z"/>
<path fill="#1B878F" opacity="1.000000" stroke="none" 
	d="
M3.959993,4.878923 
	C4.463348,3.785169 4.966704,2.691414 5.235030,1.298830 
	C5.750000,1.000000 6.500000,1.000000 7.627550,1.253339 
	C8.008026,1.675554 8.010952,1.844430 8.351072,2.236782 
	C12.804574,3.320660 16.920881,4.181061 20.871506,5.392497 
	C18.865450,6.162338 17.038225,6.656305 15.181410,6.981137 
	C12.800324,7.397685 10.395441,7.678198 8.066301,8.089102 
	C8.131792,8.160882 8.148096,8.354531 7.887912,8.444925 
	C7.459469,9.040546 7.291212,9.545772 7.122954,10.050998 
	C7.122954,10.050998 7.055607,10.078465 6.718761,10.059929 
	C5.634887,9.994541 4.887858,9.947688 4.120511,9.484338 
	C4.053460,7.671535 4.006726,6.275229 3.959993,4.878923 
z"/>
<path fill="#1D878F" opacity="1.000000" stroke="none" 
	d="
M45.625000,1.000000 
	C46.580063,2.091385 47.160126,3.182769 47.845310,5.005244 
	C47.887901,7.133055 47.825375,8.529775 47.401428,9.943491 
	C46.317101,10.002941 45.594196,10.045394 44.871292,10.087847 
	C44.871292,10.087846 44.898350,10.029613 44.937656,9.741745 
	C44.987083,9.043323 44.997204,8.632769 44.691071,7.949769 
	C42.463783,7.452136 40.522877,7.367105 38.648956,6.967733 
	C36.069115,6.417914 33.539921,5.630457 30.992096,4.578418 
	C30.995804,3.477918 30.996443,2.743807 31.248539,2.007809 
	C31.667631,2.004957 31.835272,2.003992 32.337448,2.226781 
	C36.111771,2.295079 39.551552,2.139621 42.993866,1.738126 
	C42.996403,1.492088 43.000000,1.000000 43.000000,1.000000 
	C43.750000,1.000000 44.500000,1.000000 45.625000,1.000000 
z"/>
<path fill="#148089" opacity="1.000000" stroke="none" 
	d="
M8.468657,72.000000 
	C8.000000,72.000000 8.001585,71.503754 8.469987,71.254364 
	C19.957628,71.002304 30.976870,70.999634 41.996109,70.996964 
	C42.428188,71.000366 42.860264,71.003769 43.630875,71.255295 
	C43.969410,71.503418 44.000000,72.000000 44.000000,72.000000 
	C32.312439,72.000000 20.624876,72.000000 8.468657,72.000000 
z"/>
<path fill="#148089" opacity="1.000000" stroke="none" 
	d="
M32.002911,2.003026 
	C31.835272,2.003992 31.667631,2.004957 30.780249,2.005694 
	C22.711630,2.008079 15.362754,2.010692 8.013878,2.013306 
	C8.010952,1.844430 8.008026,1.675554 8.002550,1.253339 
	C19.354227,1.000000 30.708456,1.000000 42.531342,1.000000 
	C43.000000,1.000000 42.996403,1.492088 42.536598,1.741361 
	C38.718834,1.994765 35.360874,1.998895 32.002911,2.003026 
z"/>
<path fill="#FE8216" opacity="1.000000" stroke="none" 
	d="
M1.000000,44.333328 
	C5.012411,44.003925 9.024821,44.007854 13.182092,44.241440 
	C10.867894,45.016674 8.408835,45.562252 5.949777,46.107826 
	C4.575179,46.072971 3.200581,46.038113 1.412992,46.001625 
	C1.000000,45.555553 1.000000,45.111111 1.000000,44.333328 
z"/>
<path fill="#268890" opacity="1.000000" stroke="none" 
	d="
M44.250000,72.000000 
	C44.000000,72.000000 43.969410,71.503418 43.954945,71.255081 
	C44.229794,71.164505 44.483173,71.367188 44.850311,71.807396 
	C45.000000,72.000000 44.500000,72.000000 44.250000,72.000000 
z"/>
<path fill="#FE8520" opacity="1.000000" stroke="none" 
	d="
M18.069851,26.740282 
	C18.496847,23.027563 21.051659,22.090895 24.772228,22.159496 
	C26.192110,22.268003 27.094324,22.216776 27.996540,22.165550 
	C34.674820,22.892872 44.034317,31.245554 44.577648,37.389599 
	C44.676163,38.503616 42.895794,40.813934 41.946621,40.833698 
	C30.380085,41.074543 18.806778,40.990162 5.807415,40.990162 
	C7.744465,38.673374 8.838762,37.364552 10.364202,36.430473 
	C11.691169,36.655735 13.117266,36.798965 13.389731,36.305374 
	C14.486841,34.317902 15.227479,32.133648 16.429497,29.876251 
	C17.196074,28.733702 17.632961,27.736992 18.069851,26.740282 
z"/>
<path fill="#348E95" opacity="1.000000" stroke="none" 
	d="
M44.922802,10.547729 
	C45.594196,10.045394 46.317101,10.002941 47.465599,10.415651 
	C47.922749,17.949558 48.025345,25.029505 47.905514,32.105682 
	C47.888496,33.110630 46.790665,34.097271 46.193069,35.092384 
	C45.795589,31.544394 45.210999,28.004976 45.047882,24.446243 
	C44.842934,19.974970 44.983082,15.487878 44.922802,10.547729 
z"/>
<path fill="#9CBFC1" opacity="1.000000" stroke="none" 
	d="
M43.979977,9.844371 
	C32.300854,9.891297 20.621731,9.938224 8.495335,9.665285 
	C8.084985,9.015485 8.118330,8.685189 8.148096,8.354531 
	C8.148096,8.354531 8.131792,8.160882 8.534234,8.117444 
	C20.605227,8.145905 32.273777,8.217805 43.951759,8.548787 
	C43.967457,9.153370 43.973717,9.498871 43.979977,9.844371 
z"/>
<path fill="#3A9097" opacity="1.000000" stroke="none" 
	d="
M4.140829,9.900835 
	C4.887858,9.947688 5.634887,9.994541 6.756332,10.058123 
	C7.086952,16.542875 7.106824,23.012426 6.951497,29.477770 
	C6.915756,30.965424 6.278751,32.438633 5.248996,33.645733 
	C4.433307,25.548931 4.287067,17.724882 4.140829,9.900835 
z"/>
<path fill="#6AA6AB" opacity="1.000000" stroke="none" 
	d="
M46.120506,35.473152 
	C46.790665,34.097271 47.888496,33.110630 47.905514,32.105682 
	C48.025345,25.029505 47.922749,17.949558 47.827019,10.398655 
	C47.825375,8.529775 47.887901,7.133055 47.997993,5.318824 
	C48.336208,5.258523 48.879429,5.614725 48.880859,5.973087 
	C48.925579,17.193876 48.917515,28.414877 47.781612,40.050083 
	C47.203720,38.651363 46.625832,37.252640 46.120506,35.473152 
z"/>
<path fill="#569DA3" opacity="1.000000" stroke="none" 
	d="
M4.120511,9.484338 
	C4.287067,17.724882 4.433307,25.548931 4.828303,33.710224 
	C4.930612,35.995804 4.784163,37.944134 4.637713,39.892467 
	C4.166987,39.877831 3.696262,39.863194 3.225536,39.848557 
	C3.225536,28.352873 3.225536,16.857189 3.592764,5.120214 
	C4.006726,6.275229 4.053460,7.671535 4.120511,9.484338 
z"/>
<path fill="#FE8325" opacity="1.000000" stroke="none" 
	d="
M9.171582,32.980305 
	C10.658463,29.477089 12.393686,26.275120 17.024931,27.110218 
	C16.308235,28.420120 15.552279,29.158260 14.530677,30.049606 
	C13.239218,31.487692 12.213405,32.772568 10.871505,34.039787 
	C10.344467,34.028706 10.133516,34.035275 9.922565,34.041843 
	C9.922565,34.041843 9.987894,34.024826 9.888856,33.848351 
	C9.622029,33.407120 9.415951,33.176598 9.171582,32.980305 
z"/>
<path fill="#FEF3ED" opacity="1.000000" stroke="none" 
	d="
M11.187592,34.057446 
	C12.213405,32.772568 13.239218,31.487692 14.855833,30.088654 
	C15.664359,29.990356 15.882083,30.006222 16.099808,30.022089 
	C15.227479,32.133648 14.486841,34.317902 13.389731,36.305374 
	C13.117266,36.798965 11.691169,36.655735 10.729237,36.457188 
	C10.758851,35.948795 10.854571,35.788433 11.046659,35.106991 
	C11.157882,34.409752 11.172736,34.233597 11.187592,34.057446 
z"/>
<path fill="#FE810F" opacity="1.000000" stroke="none" 
	d="
M27.704357,22.033833 
	C27.094324,22.216776 26.192110,22.268003 25.114222,22.115471 
	C25.763090,21.908514 26.587631,21.905315 27.704357,22.033833 
z"/>
<path fill="#FDE2D6" opacity="1.000000" stroke="none" 
	d="
M16.429497,29.876251 
	C15.882083,30.006222 15.664359,29.990356 15.121479,29.935446 
	C15.552279,29.158260 16.308235,28.420120 17.242001,27.409985 
	C17.419811,27.137989 17.751671,26.951675 17.910759,26.845978 
	C17.632961,27.736992 17.196074,28.733702 16.429497,29.876251 
z"/>
<path fill="#81ADB1" opacity="1.000000" stroke="none" 
	d="
M44.217590,9.919216 
	C43.973717,9.498871 43.967457,9.153370 44.215981,8.499084 
	C44.649620,8.200938 44.828472,8.211576 45.007320,8.222214 
	C44.997204,8.632769 44.987083,9.043323 44.962215,9.762426 
	C44.947468,10.070975 44.455200,9.994061 44.217590,9.919216 
z"/>
<path fill="#81ADB1" opacity="1.000000" stroke="none" 
	d="
M7.887912,8.444925 
	C8.118330,8.685189 8.084985,9.015485 8.032558,9.594030 
	C8.017056,9.842641 7.579077,9.991669 7.351016,10.021334 
	C7.291212,9.545772 7.459469,9.040546 7.887912,8.444925 
z"/>
<path fill="#FE7C00" opacity="1.000000" stroke="none" 
	d="
M10.871505,34.039787 
	C11.172736,34.233597 11.157882,34.409752 11.033104,34.827187 
	C10.639258,34.891560 10.355337,34.714657 9.996990,34.289795 
	C10.133516,34.035275 10.344467,34.028706 10.871505,34.039787 
z"/>
<path fill="#FE7C00" opacity="1.000000" stroke="none" 
	d="
M9.138335,33.250927 
	C9.415951,33.176598 9.622029,33.407120 9.890234,33.882072 
	C9.695464,33.902035 9.400276,33.711792 9.138335,33.250927 
z"/>
<path fill="#FE8320" opacity="1.000000" stroke="none" 
	d="
M6.147679,46.445602 
	C8.408835,45.562252 10.867894,45.016674 13.640934,44.259975 
	C15.046631,44.033428 16.138346,44.018005 17.963884,44.240116 
	C21.785948,44.332413 24.874187,44.187168 27.962427,44.041924 
	C32.676273,44.027653 37.390118,44.013382 42.801582,44.224575 
	C44.349945,45.002026 45.200691,45.554016 46.051437,46.106007 
	C44.193138,48.706829 41.609035,49.114967 38.575577,49.055428 
	C30.127501,48.889606 21.669331,49.152931 13.225800,48.896317 
	C10.913124,48.826031 8.637959,47.521511 6.147679,46.445602 
z"/>
<path fill="#358D94" opacity="1.000000" stroke="none" 
	d="
M48.431244,67.796303 
	C47.337086,65.479797 46.578293,62.892063 45.492733,60.143032 
	C45.165962,56.583466 45.165962,53.185200 45.165962,49.786938 
	C45.721939,49.583172 46.277916,49.379410 46.833893,49.175648 
	C47.556717,50.481960 48.849495,51.766674 48.899971,53.098469 
	C49.081905,57.898758 48.845192,62.714916 48.431244,67.796303 
z"/>
<path fill="#378E95" opacity="1.000000" stroke="none" 
	d="
M6.233730,59.569138 
	C5.527813,62.446136 4.950551,64.938972 4.137963,67.743523 
	C3.496446,62.002762 3.090254,55.950275 2.667998,49.658424 
	C7.504998,50.606739 7.907533,52.048855 6.233730,59.569138 
z"/>
<path fill="#057F89" opacity="1.000000" stroke="none" 
	d="
M43.471817,61.102966 
	C39.667614,61.445751 35.405251,61.944618 31.141155,61.959892 
	C23.687534,61.986595 16.232849,61.716042 8.430295,61.365925 
	C19.725613,61.121643 31.369246,61.081482 43.471817,61.102966 
z"/>
<path fill="#FE8216" opacity="1.000000" stroke="none" 
	d="
M46.475143,46.059616 
	C45.200691,45.554016 44.349945,45.002026 43.269875,44.249798 
	C45.112865,44.279957 47.185188,44.510353 49.543282,44.900608 
	C48.852322,45.378056 47.875587,45.695641 46.475143,46.059616 
z"/>
<path fill="#268890" opacity="1.000000" stroke="none" 
	d="
M41.656742,70.770798 
	C30.976870,70.999634 19.957628,71.002304 8.469852,71.006233 
	C10.251292,70.671562 12.495297,70.286484 14.752764,70.012199 
	C17.534458,69.674210 20.557789,70.922722 22.701887,67.445557 
	C23.338667,66.412857 27.939802,66.165382 28.603439,67.086395 
	C32.079586,71.910660 37.284702,68.870453 41.656742,70.770798 
z"/>
<path fill="#FE8216" opacity="1.000000" stroke="none" 
	d="
M27.513012,44.023113 
	C24.874187,44.187168 21.785948,44.332413 18.371887,44.263535 
	C21.051910,44.034378 24.057755,44.019341 27.513012,44.023113 
z"/>
<path fill="#007B85" opacity="1.000000" stroke="none" 
	d="
M44.691071,7.949769 
	C44.828472,8.211576 44.649620,8.200938 44.206543,8.240002 
	C32.273777,8.217805 20.605227,8.145905 8.468743,8.045664 
	C10.395441,7.678198 12.800324,7.397685 15.181410,6.981137 
	C17.038225,6.656305 18.865450,6.162338 21.321436,5.376666 
	C24.954374,4.988135 27.971701,4.966471 30.989027,4.944807 
	C33.539921,5.630457 36.069115,6.417914 38.648956,6.967733 
	C40.522877,7.367105 42.463783,7.452136 44.691071,7.949769 
z"/>
<path fill="#24868F" opacity="1.000000" stroke="none" 
	d="
M30.992096,4.578418 
	C27.971701,4.966471 24.954374,4.988135 21.487118,5.025631 
	C16.920881,4.181061 12.804574,3.320660 8.351072,2.236782 
	C15.362754,2.010692 22.711630,2.008079 30.528793,2.007581 
	C30.996443,2.743807 30.995804,3.477918 30.992096,4.578418 
z"/>
<path fill="#24868F" opacity="1.000000" stroke="none" 
	d="
M32.337448,2.226781 
	C35.360874,1.998895 38.718834,1.994765 42.534065,1.987399 
	C39.551552,2.139621 36.111771,2.295079 32.337448,2.226781 
z"/>
</svg>